<?xml version="1.0" encoding="UTF-8" standalone="no"?>
<!-- Created with Inkscape (http://www.inkscape.org/) -->

<svg
   xmlns:dc="http://purl.org/dc/elements/1.1/"
   xmlns:cc="http://creativecommons.org/ns#"
   xmlns:rdf="http://www.w3.org/1999/02/22-rdf-syntax-ns#"
   xmlns:svg="http://www.w3.org/2000/svg"
   xmlns="http://www.w3.org/2000/svg"
   xmlns:sodipodi="http://sodipodi.sourceforge.net/DTD/sodipodi-0.dtd"
   xmlns:inkscape="http://www.inkscape.org/namespaces/inkscape"
   width="1052.36"
   height="1488.189"
   id="svg2"
   version="1.1"
   inkscape:version="0.48.3.1 r9886"
   sodipodi:docname="poster.svg">
  <defs
     id="defs4" />
  <sodipodi:namedview
     id="base"
     pagecolor="#ffffff"
     bordercolor="#666666"
     borderopacity="1.0"
     inkscape:pageopacity="0.0"
     inkscape:pageshadow="2"
     inkscape:zoom="0.19"
     inkscape:cx="771.28704"
     inkscape:cy="940.87484"
     inkscape:document-units="px"
     inkscape:current-layer="layer3"
     showgrid="false"
     inkscape:window-width="1433"
     inkscape:window-height="1055"
     inkscape:window-x="0"
     inkscape:window-y="24"
     inkscape:window-maximized="1"
     borderlayer="true"
     inkscape:showpageshadow="false"
     width="1052.36px"
     showguides="true"
     inkscape:guide-bbox="true"
     inkscape:snap-page="false"
     inkscape:snap-grids="true" />
  <metadata
     id="metadata7">
    <rdf:RDF>
      <cc:Work
         rdf:about="">
        <dc:format>image/svg+xml</dc:format>
        <dc:type
           rdf:resource="http://purl.org/dc/dcmitype/StillImage" />
        <dc:title></dc:title>
      </cc:Work>
    </rdf:RDF>
  </metadata>
  <g
     inkscape:groupmode="layer"
     id="layer3"
     inkscape:label="text1"
     style="display:inline">
    <path
       style="fill:#ffff00"
       d="m 442.1514,1890.6942 0,-712.8528 -183.42861,0 -183.42939,0 0,-277.22045 0,-277.22034 183.42939,0 183.42861,0 0,-79.20586 0,-79.20575 625.3817,0 625.3815,0 196.0613,199.73937 196.0615,199.73908 0,869.53945 0,869.5396 -821.4429,0 -821.4431,0 0,-712.8523 z m 1618.9605,-150.4914 0,-839.58185 -203.3671,0 -203.3669,0 0,-205.93504 0,-205.93519 -594.1504,0 -594.1503,0 0,69.3051 0,69.30521 558.264,-2.1752 558.2639,-2.17547 0,277.41549 0,277.41555 -558.2622,0 -558.2621,0 0,700.9718 0,700.9715 797.5172,0 797.5175,0 0,-839.5819 z m -1403.63073,217.8161 0,-392.0688 51.7042,0 51.7044,0 19.8573,-38.9182 c 24.9928,-48.9835 51.6014,-58.851 193.27944,-71.676 133.36489,-12.0723 233.12199,12.8058 268.91909,67.0649 l 13.5146,20.4845 39.4253,-35.2037 c 48.4759,-43.286 91.4616,-54.9859 199.6955,-54.3534 79.49,0.4642 202.1241,20.2443 221.1875,35.6757 5.8034,4.6979 17.54,22.1459 26.0815,38.7736 13.9376,27.1329 18.6808,30.2321 46.2711,30.2321 16.9079,0 41.9567,2.2274 55.664,4.9501 l 24.9226,4.9505 0,391.0788 c 0,367.2795 -0.8494,391.062 -13.9565,390.8062 -7.6763,-0.1505 -119.827,-8.6598 -249.2245,-18.9105 -209.6973,-16.6117 -237.7484,-17.3708 -258.0965,-6.9835 -39.0934,19.9564 -99.4671,21.7077 -150.9108,4.3772 l -46.1369,-15.5426 -236.98179,18.4159 c -130.33984,10.1285 -241.46764,18.5283 -246.95064,18.666 -7.8445,0.1967 -9.9689,-83.3107 -9.9689,-391.8188 z m 314.04004,339.6117 c 169.32619,-12.218 185.43929,-12.2294 224.00579,-0.1559 52.8291,16.5385 98.7846,16.5209 140.497,-0.057 30.5715,-12.1485 45.8199,-12.1302 217.4849,0.2612 101.5346,7.3295 207.0385,15.483 234.4534,18.1188 l 49.8446,4.7923 0,-364.574 0,-364.5742 -29.907,-3.7026 c -37.1085,-4.5945 -38.5668,-3.3727 -22.7453,19.0609 11.2115,15.8964 12.7765,57.6822 12.7765,341.0974 l 0,322.9821 -27.0406,0 c -14.8726,0 -115.1275,-5.5572 -222.7886,-12.3495 -177.2994,-11.1858 -198.0137,-11.1858 -219.7936,0 -31.038,15.9405 -98.5812,15.8421 -129.7956,-0.1886 -22.2724,-11.4384 -41.6467,-11.4335 -220.91499,0.057 -108.0755,6.9283 -208.31024,12.5705 -222.74324,12.5382 l -26.2421,-0.055 2.3164,-340.3323 2.3165,-340.3321 -23.9256,1.9296 -23.9256,1.9297 -2.0747,363.1957 -2.075,363.1957 53.9135,-4.8363 c 29.6525,-2.66 136.01614,-10.7605 236.36334,-18.0013 z m 34.75309,-71.1485 c 163.7134,-12.0236 178.8449,-12.0355 197.1047,-0.1524 29.3389,19.0918 46.5699,16.9581 39.9781,-4.9508 -30.247,-100.5363 -127.1093,-125.6658 -353.09269,-91.6046 l -58.31074,8.7889 -27.7341,54.6958 -27.7342,54.6957 26.2312,-4.2243 c 14.427,-2.3234 106.02784,-10.085 203.55773,-17.2477 z m 743.8057,15.6617 c 0,-8.3982 -50.2933,-93.7013 -58.4787,-99.1862 -15.5292,-10.4062 -139.0263,-25.5105 -212.6772,-26.0115 -90.5461,-0.6163 -138.8763,14.7645 -175.082,55.7183 -25.4119,28.7441 -32.7847,66.5352 -12.9808,66.5352 6.2241,0 21.4766,-5.7732 33.8944,-12.8291 20.9028,-11.8773 36.7816,-11.6646 213.9824,2.8646 105.2722,8.6314 195.8901,16.1865 201.3729,16.7892 5.4829,0.603 9.969,-1.1436 9.969,-3.8805 z m -960.58743,-91.9851 19.7185,-37.5568 -2.0946,-283.2268 -2.0945,-283.2265 -25.9194,45.4234 -25.9194,45.4231 0.1213,287.2415 c 0.085,198.6185 2.6439,283.5754 8.2952,275.3602 4.4956,-6.5344 17.0468,-28.7816 27.892,-49.4381 z m 956.75323,-550.9008 -27.9646,-53.1093 -0.046,287.2411 -0.046,287.2411 25.9193,45.4233 25.9193,45.4235 2.0963,-279.5552 2.0961,-279.5553 -27.9646,-53.1092 z m -506.5474,-17.3575 c -12.1821,-44.9315 -59.4985,-83.5675 -116.8805,-95.4386 -49.939,-10.3313 -138.68259,-7.0208 -228.57479,8.5257 l -53.33284,9.224 0,300.9468 0,300.9468 49.84464,-6.7182 c 27.4148,-3.695 96.4997,-6.5752 153.52209,-6.4004 91.5482,0.2803 108.0619,2.4455 141.1534,18.5039 20.6119,10.0025 42.1448,23.7757 47.851,30.6071 8.5662,10.2547 10.7412,-34.8792 12.4744,-258.8461 1.2916,-166.899 -1.0388,-282.8413 -6.0574,-301.351 z m 103.6478,525.8189 c 37.1528,-19.3321 193.7713,-24.3607 281.1247,-9.0263 l 61.8077,10.8499 0,-302.7632 0,-302.7628 -57.8201,-10.3894 c -31.8008,-5.7143 -97.297,-10.4917 -145.5468,-10.6164 -77.9975,-0.202 -92.1033,1.9689 -127.1881,19.5744 -74.9255,37.597 -71.8686,22.8755 -74.4704,358.6426 l -2.2793,294.1391 18.2294,-16.5616 c 10.0265,-9.1089 30.7908,-23.0979 46.1429,-31.0863 z m 185.1903,-1209.07365 -2.2265,-223.76118 -691.34783,1.8921 c -380.24127,1.04073 -694.24657,2.85171 -697.78957,4.02461 -3.5431,1.17304 -7.2515,101.01253 -8.2413,221.86551 l -1.7991,219.73281 701.81517,0 701.81543,0 -2.2263,-223.76135 z m 524.6001,-27.3565 c 0,-5.8586 -358.5228,-368.68324 -368.8519,-373.27748 -7.3885,-3.2864 -8.046,366.23638 -0.6643,373.56728 7.1368,7.088 369.5162,6.8038 369.5162,-0.2898 z"
       id="path3444"
       inkscape:connector-curvature="0" />
    <flowRoot
       transform="translate(-43.010632,-201.87484)"
       style="font-size:200px;font-style:normal;font-variant:normal;font-weight:normal;font-stretch:normal;text-align:center;line-height:100%;letter-spacing:0px;word-spacing:0px;writing-mode:lr-tb;text-anchor:middle;fill:#000000;fill-opacity:1;stroke:none;display:inline;font-family:FreeSerif;-inkscape-font-specification:FreeSerif"
       id="flowRoot3285"
       xml:space="preserve"><flowRegion
         id="flowRegion3287"><rect
           y="318.07648"
           x="148.57143"
           height="1238.1412"
           width="838.63696"
           id="rect3289"
           style="font-size:200px;font-style:normal;font-variant:normal;font-weight:normal;font-stretch:normal;text-align:center;line-height:100%;writing-mode:lr-tb;text-anchor:middle;font-family:FreeSerif;-inkscape-font-specification:FreeSerif" /></flowRegion><flowPara
         style="font-size:200px;font-style:normal;font-variant:normal;font-weight:normal;font-stretch:normal;text-align:center;line-height:100%;writing-mode:lr-tb;text-anchor:middle;font-family:FreeSerif;-inkscape-font-specification:FreeSerif"
         id="flowPara3291">books content would then make itself</flowPara></flowRoot>  </g>
  <g
     inkscape:groupmode="layer"
     id="layer5"
     inkscape:label="text2"
     style="display:none">
    <path
       style="fill:#ffff00;display:inline"
       d="m 50.58586,734.75229 0,-712.85284 -183.42859,0 -183.4294,0 0,-277.22051 0,-277.2203 183.4294,0 183.42859,0 0,-79.2059 0,-79.2058 625.38177,0 625.38167,0 196.0613,199.7394 196.0615,199.73911 0,869.53954 0,869.53961 -821.44303,0 -821.4432,0 0,-712.85231 z m 1618.96074,-150.4914 0,-839.58195 -203.3671,0 -203.3669,0 0,-205.93499 0,-205.93521 -594.15057,0 -594.15036,0 0,69.3051 0,69.3052 558.26406,-2.1752 558.26407,-2.1755 0,277.4155 0,277.41561 -558.26237,0 -558.26216,0 0,700.97184 0,700.97151 797.5173,0 797.51763,0 0,-839.58191 z m -1403.63103,217.8161 0,-392.0688 51.7042,0 51.70443,0 19.8573,-38.9182 c 24.9928,-48.9836 51.6014,-58.8511 193.27953,-71.676 133.36504,-12.0723 233.12214,12.8058 268.91924,67.0649 l 13.5145,20.4845 39.4253,-35.2037 c 48.4759,-43.286 91.46163,-54.9859 199.69553,-54.3534 79.4901,0.4642 202.1242,20.2443 221.1876,35.6757 5.8034,4.6979 17.54,22.1459 26.0815,38.7736 13.9376,27.1329 18.6808,30.2321 46.2711,30.2321 16.9079,0 41.9567,2.2274 55.664,4.9501 l 24.9226,4.9505 0,391.0788 c 0,367.27951 -0.8494,391.06201 -13.9565,390.80621 -7.6763,-0.1506 -119.827,-8.6598 -249.2245,-18.9105 -209.6974,-16.6117 -237.7485,-17.3708 -258.09663,-6.9835 -39.0934,19.9564 -99.4671,21.7077 -150.9107,4.3772 l -46.1369,-15.5426 -236.98194,18.4159 c -130.33993,10.1284 -241.46776,18.5282 -246.95076,18.666 -7.8445,0.1967 -9.9689,-83.3107 -9.9689,-391.81881 z m 314.04016,339.61171 c 169.32634,-12.218 185.43944,-12.2295 224.00594,-0.156 52.8291,16.5386 98.7845,16.5209 140.4969,-0.057 30.57153,-12.1485 45.81993,-12.1302 217.48493,0.2612 101.5347,7.3294 207.0386,15.483 234.4535,18.1188 l 49.8446,4.7923 0,-364.57401 0,-364.5742 -29.907,-3.7026 c -37.1085,-4.5945 -38.5668,-3.3727 -22.7453,19.0609 11.2115,15.8964 12.7765,57.6822 12.7765,341.0974 l 0,322.98211 -27.0406,0 c -14.8726,0 -115.1275,-5.5572 -222.7887,-12.3495 -177.2994,-11.1858 -198.01373,-11.1858 -219.79363,0 -31.038,15.9405 -98.5811,15.8421 -129.7955,-0.1886 -22.2724,-11.4384 -41.6467,-11.4335 -220.91514,0.057 -108.0756,6.9283 -208.31033,12.5705 -222.74333,12.5382 l -26.24213,-0.055 2.3164,-340.33231 2.31653,-340.3321 -23.92563,1.9296 -23.9256,1.9297 -2.0747,363.1957 -2.075,363.19571 53.91353,-4.8363 c 29.6525,-2.66 136.01613,-10.7605 236.36343,-18.0013 z m 34.7531,-71.1485 c 163.71354,-12.0236 178.84504,-12.0355 197.10484,-0.1524 29.3389,19.0918 46.5698,16.9581 39.9781,-4.9508 -30.247,-100.5363 -127.1093,-125.6658 -353.09294,-91.6046 l -58.31073,8.7889 -27.7341,54.6958 -27.7342,54.6957 26.2312,-4.2243 c 14.427,-2.3234 106.02793,-10.085 203.55783,-17.2477 z m 743.80587,15.6617 c 0,-8.3982 -50.2933,-93.7013 -58.4787,-99.1862 -15.5292,-10.4062 -139.0264,-25.5105 -212.6773,-26.0115 -90.5461,-0.6163 -138.87633,14.7645 -175.08203,55.7183 -25.4119,28.7441 -32.7847,66.5352 -12.9808,66.5352 6.2241,0 21.4766,-5.7732 33.8944,-12.8291 20.9028,-11.8773 36.78163,-11.6646 213.98243,2.8646 105.2723,8.6314 195.8902,16.1864 201.373,16.7892 5.4829,0.603 9.969,-1.1436 9.969,-3.8806 z M 397.927,994.2168 417.6455,956.66 l -2.0946,-283.22681 -2.0945,-283.2265 -25.9194,45.4234 -25.9194,45.4231 0.1213,287.2415 c 0.085,198.61851 2.6439,283.57541 8.2952,275.36021 4.4956,-6.5344 17.0468,-28.7816 27.892,-49.4381 z m 956.7535,-550.90081 -27.9646,-53.1093 -0.046,287.2411 -0.046,287.24111 25.9193,45.4233 25.9193,45.4235 2.0963,-279.55521 2.0961,-279.5553 -27.9646,-53.1092 z m -506.54743,-17.3575 c -12.1821,-44.9315 -59.4985,-83.5675 -116.8805,-95.4386 -49.93914,-10.3313 -138.68274,-7.0208 -228.57494,8.5257 l -53.33293,9.224 0,300.9468 0,300.94681 49.84463,-6.7182 c 27.4149,-3.695 96.4998,-6.5752 153.5222,-6.4004 91.54834,0.2803 108.06204,2.4455 141.15354,18.5039 20.6119,10.0025 42.1448,23.7757 47.851,30.6071 8.5662,10.2547 10.7412,-34.8792 12.4744,-258.84611 1.2916,-166.899 -1.0388,-282.8413 -6.0574,-301.351 z m 103.6477,525.81891 c 37.15283,-19.3321 193.77133,-24.3607 281.12483,-9.0263 l 61.8077,10.8499 0,-302.76321 0,-302.7628 -57.8201,-10.3894 c -31.8008,-5.7143 -97.2971,-10.4917 -145.5469,-10.6164 -77.9975,-0.202 -92.1033,1.9689 -127.1881,19.5744 -74.92553,37.597 -71.86863,22.8755 -74.47043,358.6426 l -2.2793,294.13911 18.2294,-16.5616 c 10.0265,-9.1089 30.7908,-23.0979 46.1429,-31.0863 z m 185.19033,-1209.07376 -2.2265,-223.76119 -691.348,1.8921 c -380.24124,1.0407 -694.24653,2.8517 -697.78953,4.0246 -3.5431,1.1731 -7.2515,101.0126 -8.2413,221.86549 l -1.7991,219.73291 701.81513,0 701.8156,0 -2.2263,-223.76141 z m 524.6002,-27.3565 c 0,-5.85859 -358.5228,-368.6832 -368.8519,-373.2775 -7.3885,-3.2864 -8.046,366.23641 -0.6643,373.5673 7.1368,7.088 369.5162,6.8038 369.5162,-0.2898 z"
       id="path3444-9-6"
       inkscape:connector-curvature="0" />
    <flowRoot
       xml:space="preserve"
       id="flowRoot3297"
       style="font-size:200px;font-style:normal;font-variant:normal;font-weight:normal;font-stretch:normal;text-align:center;line-height:100%;letter-spacing:0px;word-spacing:0px;writing-mode:lr-tb;text-anchor:middle;fill:#000000;fill-opacity:1;stroke:none;display:inline;font-family:FreeSerif;-inkscape-font-specification:FreeSerif"
       transform="translate(-43.06532,-206.30232)"><flowRegion
         id="flowRegion3299"><rect
           id="rect3301"
           width="844.48151"
           height="1042.1987"
           x="148.57143"
           y="318.07648"
           style="font-size:200px;font-style:normal;font-variant:normal;font-weight:normal;font-stretch:normal;text-align:center;line-height:100%;writing-mode:lr-tb;text-anchor:middle;font-family:FreeSerif;-inkscape-font-specification:FreeSerif" /></flowRegion><flowPara
         id="flowPara3303"
         style="font-size:200px;font-style:normal;font-variant:normal;font-weight:normal;font-stretch:normal;text-align:center;line-height:100%;writing-mode:lr-tb;text-anchor:middle;font-family:FreeSerif;-inkscape-font-specification:FreeSerif">each conscious</flowPara><flowPara
         style="font-size:200px;font-style:normal;font-variant:normal;font-weight:normal;font-stretch:normal;text-align:center;line-height:100%;writing-mode:lr-tb;text-anchor:middle;font-family:FreeSerif;-inkscape-font-specification:FreeSerif"
         id="flowPara3305">all </flowPara><flowPara
         style="font-size:200px;font-style:normal;font-variant:normal;font-weight:normal;font-stretch:normal;text-align:center;line-height:100%;writing-mode:lr-tb;text-anchor:middle;font-family:FreeSerif;-inkscape-font-specification:FreeSerif"
         id="flowPara3367">words</flowPara></flowRoot>  </g>
  <g
     inkscape:groupmode="layer"
     id="layer6"
     inkscape:label="text3"
     style="display:none">
    <path
       style="fill:#ffff00;display:inline"
       d="m 121.19528,1360.7266 0,-712.85281 -183.428596,0 -183.429404,0 0,-277.22049 0,-277.220305 183.429404,0 183.428596,0 0,-79.2059 0,-79.2058 625.38176,0 625.38166,0 196.0613,199.739395 196.0615,199.7391 0,869.53951 0,869.5395 -821.44302,0 -821.4432,0 0,-712.8522 z m 1618.96072,-150.4914 0,-839.5819 -203.3671,0 -203.3669,0 0,-205.93501 0,-205.935195 -594.15056,0 -594.15036,0 0,69.3051 0,69.3052 558.26406,-2.1752 558.26406,-2.1755 0,277.415505 0,277.41559 -558.26236,0 -558.26216,0 0,700.97181 0,700.9714 797.5173,0 797.51762,0 0,-839.5818 z m -1403.63102,217.8161 0,-392.0688 51.7042,0 51.70443,0 19.8573,-38.91821 c 24.9928,-48.9836 51.6014,-58.8511 193.27953,-71.676 133.36504,-12.0723 233.12214,12.8058 268.91924,67.0649 l 13.5145,20.48451 39.4253,-35.20371 c 48.47592,-43.286 91.46162,-54.9859 199.69552,-54.3534 79.4901,0.4642 202.1242,20.2443 221.1876,35.6757 5.8034,4.6979 17.54,22.1459 26.0815,38.7736 13.9376,27.13291 18.6808,30.23211 46.2711,30.23211 16.9079,0 41.9567,2.2274 55.664,4.9501 l 24.9226,4.9505 0,391.0788 c 0,367.2795 -0.8494,391.062 -13.9565,390.8062 -7.6763,-0.1506 -119.827,-8.6598 -249.2245,-18.9105 -209.6974,-16.6117 -237.7485,-17.3708 -258.0966,-6.9835 -39.09342,19.9564 -99.46712,21.7077 -150.91072,4.3772 l -46.1369,-15.5426 -236.98194,18.4159 c -130.33993,10.1284 -241.46776,18.5282 -246.95076,18.666 -7.8445,0.1967 -9.9689,-83.3107 -9.9689,-391.8188 z m 314.04016,339.6117 c 169.32634,-12.218 185.43944,-12.2295 224.00594,-0.156 52.8291,16.5386 98.7845,16.5209 140.49692,-0.057 30.5715,-12.1485 45.8199,-12.1302 217.4849,0.2612 101.5347,7.3294 207.0386,15.483 234.4535,18.1188 l 49.8446,4.7923 0,-364.574 0,-364.5742 -29.907,-3.7026 c -37.1085,-4.5945 -38.5668,-3.3727 -22.7453,19.0609 11.2115,15.8964 12.7765,57.6822 12.7765,341.0974 l 0,322.9821 -27.0406,0 c -14.8726,0 -115.1275,-5.5572 -222.7887,-12.3495 -177.2994,-11.1858 -198.0137,-11.1858 -219.7936,0 -31.03802,15.9405 -98.58112,15.8421 -129.79552,-0.1886 -22.2724,-11.4384 -41.6467,-11.4335 -220.91514,0.057 -108.0756,6.9283 -208.31033,12.5705 -222.74333,12.5382 l -26.24213,-0.055 2.3164,-340.3323 2.31653,-340.3321 -23.92563,1.9296 -23.9256,1.9297 -2.0747,363.1957 -2.075,363.1957 53.91353,-4.8363 c 29.6525,-2.66 136.01613,-10.7605 236.36343,-18.0013 z m 34.7531,-71.1485 c 163.71354,-12.0236 178.84504,-12.0355 197.10484,-0.1524 29.3389,19.0918 46.5698,16.9581 39.9781,-4.9508 -30.247,-100.5363 -127.1093,-125.6658 -353.09294,-91.6046 l -58.31073,8.7889 -27.7341,54.6958 -27.7342,54.6957 26.2312,-4.2243 c 14.427,-2.3234 106.02793,-10.085 203.55783,-17.2477 z m 743.80586,15.6617 c 0,-8.3982 -50.2933,-93.7013 -58.4787,-99.1862 -15.5292,-10.4062 -139.0264,-25.5105 -212.6773,-26.0115 -90.5461,-0.6163 -138.8763,14.7645 -175.08202,55.7183 -25.4119,28.7441 -32.7847,66.5352 -12.9808,66.5352 6.2241,0 21.4766,-5.7732 33.89442,-12.8291 20.9028,-11.8773 36.7816,-11.6646 213.9824,2.8646 105.2723,8.6314 195.8902,16.1864 201.373,16.7892 5.4829,0.603 9.969,-1.1436 9.969,-3.8806 z m -960.58769,-91.9851 19.7185,-37.5568 -2.0946,-283.2268 -2.0945,-283.2265 -25.9194,45.4234 -25.9194,45.4231 0.1213,287.2415 c 0.085,198.6185 2.6439,283.5754 8.2952,275.3602 4.4956,-6.5344 17.0468,-28.7816 27.892,-49.4381 z m 956.75349,-550.9008 -27.9646,-53.1093 -0.046,287.2411 -0.046,287.2411 25.9193,45.4233 25.9193,45.4235 2.0963,-279.5552 2.0961,-279.5553 -27.9646,-53.1092 z m -506.54742,-17.3575 c -12.1821,-44.9315 -59.4985,-83.56751 -116.8805,-95.43861 -49.93914,-10.3313 -138.68274,-7.0208 -228.57494,8.5257 l -53.33293,9.224 0,300.94681 0,300.9468 49.84463,-6.7182 c 27.4149,-3.695 96.4998,-6.5752 153.5222,-6.4004 91.54834,0.2803 108.06204,2.4455 141.15354,18.5039 20.6119,10.0025 42.1448,23.7757 47.851,30.6071 8.5662,10.2547 10.7412,-34.8792 12.4744,-258.8461 1.2916,-166.899 -1.0388,-282.8413 -6.0574,-301.351 z m 103.64772,525.8189 c 37.1528,-19.3321 193.7713,-24.3607 281.1248,-9.0263 l 61.8077,10.8499 0,-302.7632 0,-302.76281 -57.8201,-10.3894 c -31.8008,-5.7143 -97.2971,-10.4917 -145.5469,-10.6164 -77.9975,-0.202 -92.1033,1.9689 -127.1881,19.5744 -74.92552,37.59701 -71.86862,22.8755 -74.47042,358.64261 l -2.2793,294.1391 18.2294,-16.5616 c 10.0265,-9.1089 30.79082,-23.0979 46.14292,-31.0863 z m 185.1903,-1209.0737 -2.2265,-223.76121 -691.34799,1.8921 c -380.24123,1.0407 -694.24653,2.8517 -697.78953,4.0246 -3.5431,1.1731 -7.2515,101.0126 -8.2413,221.86551 l -1.7991,219.73289 701.81513,0 701.81559,0 -2.2263,-223.76139 z m 524.6002,-27.3565 c 0,-5.8586 -358.5228,-368.683205 -368.8519,-373.277505 -7.3885,-3.2864 -8.046,366.236395 -0.6643,373.567305 7.1368,7.088 369.5162,6.8038 369.5162,-0.2898 z"
       id="path3444-9-1"
       inkscape:connector-curvature="0" />
    <flowRoot
       transform="translate(-44.57626,-203.67665)"
       style="font-size:200px;font-style:normal;font-variant:normal;font-weight:normal;font-stretch:normal;text-align:center;line-height:100%;letter-spacing:0px;word-spacing:0px;writing-mode:lr-tb;text-anchor:middle;fill:#000000;fill-opacity:1;stroke:none;display:inline;font-family:FreeSerif;-inkscape-font-specification:FreeSerif"
       id="flowRoot3285-3"
       xml:space="preserve"><flowRegion
         id="flowRegion3287-5"><rect
           y="318.07648"
           x="148.57143"
           height="1238.1412"
           width="838.63696"
           id="rect3289-9"
           style="font-size:200px;font-style:normal;font-variant:normal;font-weight:normal;font-stretch:normal;text-align:center;line-height:100%;writing-mode:lr-tb;text-anchor:middle;font-family:FreeSerif;-inkscape-font-specification:FreeSerif" /></flowRegion><flowPara
         style="font-size:200px;font-style:normal;font-variant:normal;font-weight:normal;font-stretch:normal;text-align:center;line-height:100%;writing-mode:lr-tb;text-anchor:middle;font-family:FreeSerif;-inkscape-font-specification:FreeSerif"
         id="flowPara3291-3" /><flowPara
         style="font-size:200px;font-style:normal;font-variant:normal;font-weight:normal;font-stretch:normal;text-align:center;line-height:100%;writing-mode:lr-tb;text-anchor:middle;font-family:FreeSerif;-inkscape-font-specification:FreeSerif"
         id="flowPara3744">we different reader</flowPara></flowRoot>  </g>
  <g
     inkscape:groupmode="layer"
     id="layer7"
     inkscape:label="text4"
     style="display:none">
    <path
       style="fill:#ffff00;display:inline"
       d="m -402.0221,1606.4452 0,-712.85278 -183.4286,0 -183.4294,0 0,-277.22051 0,-277.22029 183.4294,0 183.4286,0 0,-79.2059 0,-79.2058 625.38176,0 625.3816,0 196.06134,199.7394 196.0615,199.73909 0,869.53949 0,869.5396 -821.443,0 -821.4432,0 0,-712.8523 z m 1618.9607,-150.4914 0,-839.58189 -203.3671,0 -203.36694,0 0,-205.93499 0,-205.9352 -594.1505,0 -594.15036,0 0,69.3051 0,69.3052 558.26406,-2.1752 558.264,-2.1755 0,277.41549 0,277.41561 -558.2623,0 -558.26216,0 0,700.97178 0,700.9715 797.5173,0 797.5176,0 0,-839.5819 z m -1403.631,217.8161 0,-392.0688 51.7042,0 51.70443,0 19.8573,-38.9182 c 24.9928,-48.9836 51.6014,-58.8511 193.27953,-71.676 133.36504,-12.0723 233.12214,12.8058 268.91924,67.0649 l 13.5145,20.4845 39.4253,-35.2037 c 48.4759,-43.286 91.4616,-54.9859 199.69546,-54.3534 79.4901,0.4642 202.1242,20.2443 221.1876,35.6757 5.8034,4.6979 17.54,22.1459 26.0815,38.7736 13.9376,27.1329 18.6808,30.2321 46.2711,30.2321 16.9079,0 41.9567,2.2274 55.66404,4.9501 l 24.9226,4.9505 0,391.0788 c 0,367.2795 -0.8494,391.062 -13.9565,390.8062 -7.6763,-0.1506 -119.82704,-8.6598 -249.22454,-18.9105 -209.69736,-16.6117 -237.74846,-17.3708 -258.09656,-6.9835 -39.0934,19.9564 -99.4671,21.7077 -150.9107,4.3772 l -46.1369,-15.5426 -236.98194,18.4159 c -130.33993,10.1284 -241.46776,18.5282 -246.95076,18.666 -7.8445,0.1967 -9.9689,-83.3107 -9.9689,-391.8188 z m 314.04016,339.6117 c 169.32634,-12.218 185.43944,-12.2295 224.00594,-0.156 52.8291,16.5386 98.7845,16.5209 140.4969,-0.057 30.5715,-12.1485 45.8199,-12.1302 217.48486,0.2612 101.5347,7.3294 207.0386,15.483 234.4535,18.1188 l 49.8446,4.7923 0,-364.574 0,-364.5742 -29.907,-3.7026 c -37.1085,-4.5945 -38.5668,-3.3727 -22.7453,19.0609 11.2115,15.8964 12.7765,57.6822 12.7765,341.0974 l 0,322.9821 -27.0406,0 c -14.8726,0 -115.1275,-5.5572 -222.7887,-12.3495 -177.29936,-11.1858 -198.01366,-11.1858 -219.79356,0 -31.038,15.9405 -98.5811,15.8421 -129.7955,-0.1886 -22.2724,-11.4384 -41.6467,-11.4335 -220.91514,0.057 -108.0756,6.9283 -208.31033,12.5705 -222.74333,12.5382 l -26.24213,-0.055 2.3164,-340.3323 2.31653,-340.3321 -23.92563,1.9296 -23.9256,1.9297 -2.0747,363.1957 -2.075,363.1957 53.91353,-4.8363 c 29.6525,-2.66 136.01613,-10.7605 236.36343,-18.0013 z m 34.7531,-71.1485 c 163.71354,-12.0236 178.84504,-12.0355 197.10484,-0.1524 29.3389,19.0918 46.5698,16.9581 39.9781,-4.9508 -30.247,-100.5363 -127.1093,-125.6658 -353.09294,-91.6046 l -58.31073,8.7889 -27.7341,54.6958 -27.7342,54.6957 26.2312,-4.2243 c 14.427,-2.3234 106.02793,-10.085 203.55783,-17.2477 z m 743.8058,15.6617 c 0,-8.3982 -50.2933,-93.7013 -58.4787,-99.1862 -15.5292,-10.4062 -139.0264,-25.5105 -212.67726,-26.0115 -90.5461,-0.6163 -138.8763,14.7645 -175.082,55.7183 -25.4119,28.7441 -32.7847,66.5352 -12.9808,66.5352 6.2241,0 21.4766,-5.7732 33.8944,-12.8291 20.9028,-11.8773 36.7816,-11.6646 213.98236,2.8646 105.2723,8.6314 195.8902,16.1864 201.373,16.7892 5.4829,0.603 9.969,-1.1436 9.969,-3.8806 z m -960.58763,-91.9851 19.7185,-37.5568 -2.0946,-283.2268 -2.0945,-283.2265 -25.9194,45.4234 -25.9194,45.4231 0.1213,287.2415 c 0.085,198.6185 2.6439,283.5754 8.2952,275.3602 4.4956,-6.5344 17.0468,-28.7816 27.892,-49.4381 z m 956.75343,-550.9008 -27.9646,-53.1093 -0.046,287.2411 -0.046,287.2411 25.9193,45.4233 25.9193,45.4235 2.0963,-279.5552 2.0961,-279.5553 -27.9646,-53.1092 z M 395.5251,1297.6514 c -12.1821,-44.9315 -59.4985,-83.5675 -116.8805,-95.4386 -49.93914,-10.3313 -138.68274,-7.0208 -228.57494,8.5257 l -53.33293,9.224 0,300.9468 0,300.9468 49.84463,-6.7182 c 27.4149,-3.695 96.4998,-6.5752 153.5222,-6.4004 91.54834,0.2803 108.06204,2.4455 141.15354,18.5039 20.6119,10.0025 42.1448,23.7757 47.851,30.6071 8.5662,10.2547 10.7412,-34.8792 12.4744,-258.8461 1.2916,-166.899 -1.0388,-282.8413 -6.0574,-301.351 z m 103.6477,525.8189 c 37.1528,-19.3321 193.77126,-24.3607 281.12476,-9.0263 l 61.8077,10.8499 0,-302.7632 0,-302.7628 -57.8201,-10.3894 c -31.8008,-5.7143 -97.2971,-10.4917 -145.54686,-10.6164 -77.9975,-0.202 -92.1033,1.9689 -127.1881,19.5744 -74.9255,37.597 -71.8686,22.8755 -74.4704,358.6426 l -2.2793,294.1391 18.2294,-16.5616 c 10.0265,-9.1089 30.7908,-23.0979 46.1429,-31.0863 z m 185.19026,-1209.07369 -2.2265,-223.76119 -691.34793,1.8921 c -380.24123,1.0407 -694.24653,2.8517 -697.78953,4.0246 -3.5431,1.1731 -7.2515,101.0126 -8.2413,221.86549 l -1.7991,219.73291 701.81513,0 701.81553,0 -2.2263,-223.76141 z m 524.60024,-27.3565 c 0,-5.8586 -358.52284,-368.68319 -368.85194,-373.27749 -7.3885,-3.2864 -8.046,366.23639 -0.6643,373.56729 7.1368,7.088 369.51624,6.8038 369.51624,-0.2898 z"
       id="path3444-9-7"
       inkscape:connector-curvature="0" />
    <flowRoot
       transform="translate(19.60499,-7.1935452)"
       style="font-size:200px;font-style:normal;font-variant:normal;font-weight:normal;font-stretch:normal;text-align:center;line-height:100%;letter-spacing:0px;word-spacing:0px;writing-mode:lr-tb;text-anchor:middle;fill:#000000;fill-opacity:1;stroke:none;display:inline;font-family:FreeSerif;-inkscape-font-specification:FreeSerif"
       id="flowRoot3307"
       xml:space="preserve"><flowRegion
         id="flowRegion3309"><rect
           y="318.07648"
           x="148.57143"
           height="1108.7456"
           width="708.6062"
           id="rect3311"
           style="font-size:200px;font-style:normal;font-variant:normal;font-weight:normal;font-stretch:normal;text-align:center;line-height:100%;writing-mode:lr-tb;text-anchor:middle;font-family:FreeSerif;-inkscape-font-specification:FreeSerif" /></flowRegion><flowPara
         style="font-size:200px;font-style:normal;font-variant:normal;font-weight:normal;font-stretch:normal;text-align:center;line-height:100%;writing-mode:lr-tb;text-anchor:middle;font-family:FreeSerif;-inkscape-font-specification:FreeSerif"
         id="flowPara3313">aware </flowPara><flowPara
         style="font-size:200px;font-style:normal;font-variant:normal;font-weight:normal;font-stretch:normal;text-align:center;line-height:100%;writing-mode:lr-tb;text-anchor:middle;font-family:FreeSerif;-inkscape-font-specification:FreeSerif"
         id="flowPara3369">at users unlike tools</flowPara></flowRoot>  </g>
  <g
     inkscape:groupmode="layer"
     id="layer8"
     inkscape:label="text5"
     style="display:none">
    <path
       style="fill:#ffff00;display:inline"
       d="m -282.41022,715.41489 0,-712.8528352 -183.4286,0 -183.4294,0 0,-277.2205048 0,-277.2203 183.4294,0 183.4286,0 0,-79.2059 0,-79.2058 625.38176,0 625.38163,0 196.06133,199.73941 196.0615,199.73909 0,869.5395 0,869.53965 -821.44302,0 -821.4432,0 0,-712.85231 z m 1618.96072,-150.49144 0,-839.5819 -203.3671,0 -203.36693,0 0,-205.93499 0,-205.93521 -594.15053,0 -594.15036,0 0,69.3051 0,69.3052 558.26406,-2.1752 558.26403,-2.1755 0,277.4155 0,277.4156048 -558.26233,0 -558.26216,0 0,700.9718352 0,700.97151 797.5173,0 797.51762,0 0,-839.58195 z m -1403.63102,217.81614 0,-392.06884 51.7042,0 51.70443,0 19.8573,-38.9182 c 24.9928,-48.9836 51.6014,-58.8511 193.27953,-71.676 133.36504,-12.0723 233.12214,12.8058 268.91924,67.0649 l 13.5145,20.4845 39.4253,-35.2037 c 48.4759,-43.286 91.4616,-54.9859 199.6955,-54.3534 79.49009,0.4642 202.12419,20.2443 221.18759,35.6757 5.8034,4.6979 17.54003,22.1459 26.08153,38.7736 13.9376,27.1329 18.6808,30.2321 46.2711,30.2321 16.9079,0 41.9567,2.2274 55.664,4.9501 l 24.9226,4.9505 0,391.07884 c 0,367.27951 -0.8494,391.06201 -13.9565,390.80621 -7.6763,-0.1506 -119.827,-8.6598 -249.22453,-18.9105 -209.69739,-16.6117 -237.74849,-17.3708 -258.09659,-6.9835 -39.0934,19.9564 -99.4671,21.7077 -150.9107,4.3772 l -46.1369,-15.5426 -236.98194,18.4159 c -130.33993,10.1284 -241.46776,18.5282 -246.95076,18.666 -7.8445,0.1967 -9.9689,-83.3107 -9.9689,-391.81881 z m 314.04016,339.61171 c 169.32634,-12.218 185.43944,-12.2295 224.00594,-0.156 52.8291,16.5386 98.7845,16.5209 140.4969,-0.057 30.5715,-12.1485 45.8199,-12.1302 217.48489,0.2612 101.5347,7.3294 207.03863,15.483 234.45353,18.1188 l 49.8446,4.7923 0,-364.57401 0,-364.57424 -29.907,-3.7026 c -37.1085,-4.5945 -38.5668,-3.3727 -22.7453,19.0609 11.2115,15.8964 12.7765,57.6822 12.7765,341.09744 l 0,322.98211 -27.0406,0 c -14.8726,0 -115.12753,-5.5572 -222.78873,-12.3495 -177.29939,-11.1858 -198.01369,-11.1858 -219.79359,0 -31.038,15.9405 -98.5811,15.8421 -129.7955,-0.1886 -22.2724,-11.4384 -41.6467,-11.4335 -220.91514,0.057 -108.0756,6.9283 -208.31033,12.5705 -222.74333,12.5382 l -26.24213,-0.055 2.3164,-340.33231 2.31653,-340.33214 -23.92563,1.9296 -23.9256,1.9297 -2.0747,363.19574 -2.075,363.19571 53.91353,-4.8363 c 29.6525,-2.66 136.01613,-10.7605 236.36343,-18.0013 z m 34.7531,-71.1485 c 163.71354,-12.0236 178.84504,-12.0355 197.10484,-0.1524 29.3389,19.0918 46.5698,16.9581 39.9781,-4.9508 -30.247,-100.53631 -127.1093,-125.66581 -353.09294,-91.60461 l -58.31073,8.7889 -27.7341,54.69581 -27.7342,54.6957 26.2312,-4.2243 c 14.427,-2.3234 106.02793,-10.085 203.55783,-17.2477 z m 743.80586,15.6617 c 0,-8.3982 -50.29333,-93.70131 -58.47873,-99.18621 -15.5292,-10.4062 -139.0264,-25.5105 -212.67729,-26.0115 -90.5461,-0.6163 -138.8763,14.7645 -175.082,55.7183 -25.4119,28.74411 -32.7847,66.53521 -12.9808,66.53521 6.2241,0 21.4766,-5.7732 33.8944,-12.8291 20.9028,-11.8773 36.7816,-11.6646 213.9824,2.8646 105.27229,8.6314 195.89022,16.1864 201.37302,16.7892 5.4829,0.603 9.969,-1.1436 9.969,-3.8806 z m -960.58769,-91.98511 19.7185,-37.5568 -2.0946,-283.2268 -2.0945,-283.22654 -25.9194,45.4234 -25.9194,45.4231 0.1213,287.24154 c 0.085,198.6185 2.6439,283.57541 8.2952,275.36021 4.4956,-6.5344 17.0468,-28.78161 27.892,-49.43811 z m 956.75349,-550.90084 -27.96463,-53.1093 -0.046,287.24114 -0.046,287.2411 25.91933,45.4233 25.9193,45.42351 2.0963,-279.55521 2.0961,-279.55534 -27.9646,-53.1092 z m -506.54742,-17.3575 c -12.1821,-44.9315 -59.4985,-83.5675 -116.8805,-95.4386 -49.93914,-10.3313 -138.68274,-7.0208 -228.57494,8.5257 l -53.33293,9.224 0,300.94684 0,300.9468 49.84463,-6.7182 c 27.4149,-3.695 96.4998,-6.5752 153.5222,-6.4004 91.54834,0.2803 108.06204,2.4455 141.15354,18.5039 20.6119,10.0025 42.1448,23.7757 47.851,30.6071 8.5662,10.2547 10.7412,-34.8792 12.4744,-258.8461 1.2916,-166.89904 -1.0388,-282.84134 -6.0574,-301.35104 z m 103.6477,525.81894 c 37.1528,-19.3321 193.7713,-24.3607 281.12479,-9.0263 l 61.8077,10.8499 0,-302.7632 0,-302.76284 -57.8201,-10.3894 c -31.8008,-5.7143 -97.29709,-10.4917 -145.54689,-10.6164 -77.9975,-0.202 -92.1033,1.9689 -127.1881,19.5744 -74.9255,37.597 -71.8686,22.8755 -74.4704,358.64264 l -2.2793,294.1391 18.2294,-16.5616 c 10.0265,-9.1089 30.7908,-23.0979 46.1429,-31.0863 z m 185.1903,-1209.07374 -2.2265,-223.76119 -691.34797,1.8921 c -380.24123,1.0407 -694.24653,2.8517 -697.78953,4.0246 -3.5431,1.1731 -7.2515,101.0126 -8.2413,221.86549 l -1.7991,219.732905 701.81513,0 701.81557,0 -2.2263,-223.761405 z m 524.60022,-27.3565 c 0,-5.8586 -358.52283,-368.6832 -368.85193,-373.2775 -7.3885,-3.2864 -8.046,366.2364 -0.6643,373.5673 7.1368,7.088 369.51623,6.8038 369.51623,-0.2898 z"
       id="path3444-9-74"
       inkscape:connector-curvature="0" />
    <flowRoot
       xml:space="preserve"
       id="flowRoot3275"
       style="font-size:200px;font-style:normal;font-variant:normal;font-weight:normal;font-stretch:normal;text-align:center;line-height:100%;letter-spacing:0px;word-spacing:0px;writing-mode:lr-tb;text-anchor:middle;fill:#000000;fill-opacity:1;stroke:none;display:inline;font-family:FreeSerif;-inkscape-font-specification:FreeSerif"
       transform="translate(-36.67938,-209.40125)"><flowRegion
         id="flowRegion3277"><rect
           id="rect3279"
           width="827.59393"
           height="1179.2482"
           x="148.57143"
           y="318.07648"
           style="font-size:200px;font-style:normal;font-variant:normal;font-weight:normal;font-stretch:normal;text-align:center;line-height:100%;writing-mode:lr-tb;text-anchor:middle;font-family:FreeSerif;-inkscape-font-specification:FreeSerif" /></flowRegion><flowPara
         id="flowPara3281"
         style="font-size:200px;font-style:normal;font-variant:normal;font-weight:normal;font-stretch:normal;text-align:center;line-height:100%;writing-mode:lr-tb;text-anchor:middle;font-family:FreeSerif;-inkscape-font-specification:FreeSerif">page have media html design </flowPara><flowPara
         style="font-size:200px;font-style:normal;font-variant:normal;font-weight:normal;font-stretch:normal;text-align:center;line-height:100%;writing-mode:lr-tb;text-anchor:middle;font-family:FreeSerif;-inkscape-font-specification:FreeSerif"
         id="flowPara3512">by story</flowPara></flowRoot>  </g>
  <g
     inkscape:groupmode="layer"
     id="layer4"
     inkscape:label="infos"
     sodipodi:insensitive="true">
    <flowRoot
       xml:space="preserve"
       id="flowRoot3323"
       style="font-size:36px;font-style:normal;font-variant:normal;font-weight:normal;font-stretch:normal;text-align:start;line-height:125%;letter-spacing:0px;word-spacing:0px;writing-mode:lr-tb;text-anchor:start;fill:#000000;fill-opacity:1;stroke:none;display:inline;font-family:Sans;-inkscape-font-specification:Sans"
       transform="translate(745.54297,532.44271)"><flowRegion
         id="flowRegion3325"><rect
           id="rect3327"
           width="892.85718"
           height="574.06012"
           x="-645.71429"
           y="632.36218"
           style="font-size:36px;font-style:normal;font-variant:normal;font-weight:normal;font-stretch:normal;text-align:start;line-height:125%;writing-mode:lr-tb;text-anchor:start;font-family:Sans;-inkscape-font-specification:Sans" /></flowRegion><flowPara
         style="font-size:36px;font-style:normal;font-variant:normal;font-weight:bold;font-stretch:normal;text-align:start;line-height:125%;writing-mode:lr-tb;text-anchor:start;font-family:Sans;-inkscape-font-specification:Sans Bold"
         id="flowPara3347">Tuesday January 14 </flowPara><flowPara
         style="font-size:36px;font-style:normal;font-variant:normal;font-weight:normal;font-stretch:normal;text-align:start;line-height:125%;writing-mode:lr-tb;text-anchor:start;font-family:Sans;-inkscape-font-specification:Sans"
         id="flowPara3351">14:00 at Prairie 301</flowPara><flowPara
         id="flowPara3331"
         style="font-size:36px;font-style:normal;font-variant:normal;font-weight:normal;font-stretch:normal;text-align:start;line-height:125%;writing-mode:lr-tb;text-anchor:start;font-family:Sans;-inkscape-font-specification:Sans">Self-conscious-layout</flowPara><flowPara
         style="font-size:36px;font-style:normal;font-variant:normal;font-weight:normal;font-stretch:normal;text-align:start;line-height:125%;writing-mode:lr-tb;text-anchor:start;font-family:Sans;-inkscape-font-specification:Sans"
         id="flowPara3518">Media design M1 workshop presentation</flowPara><flowPara
         style="font-size:36px;font-style:normal;font-variant:normal;font-weight:normal;font-stretch:normal;text-align:start;line-height:125%;writing-mode:lr-tb;text-anchor:start;font-family:Sans;-inkscape-font-specification:Sans"
         id="flowPara3510">ePub beaming and beers with OSP</flowPara></flowRoot>  </g>
</svg>
